<svg width="139" height="40" viewBox="0 0 139 40" fill="none" xmlns="http://www.w3.org/2000/svg">
<g clip-path="url(#clip0_1307_12650)">
<path d="M2.1897 24.7332C2.1415 22.3028 2.81172 19.9121 4.11637 17.8609C5.07483 16.2614 6.11454 14.712 7.23142 13.2187C9.72446 9.96713 12.2984 6.77623 14.842 3.53982C15.0595 3.26169 15.2011 3.29203 15.4185 3.53982C17.4413 6.10872 19.55 8.65233 21.5728 11.2516C23.4476 13.5932 25.1223 16.0883 26.5791 18.7105C27.6006 20.6319 28.1059 22.7856 28.0456 24.9608C27.9787 26.153 27.8095 27.3373 27.5399 28.5006C27.4724 28.7633 27.5055 29.0417 27.6328 29.2812C27.76 29.5208 27.9722 29.7041 28.2276 29.7952C28.3637 29.8464 28.5092 29.8678 28.6543 29.8577C28.7993 29.8476 28.9405 29.8063 29.0682 29.7367C29.1958 29.6671 29.307 29.5708 29.3941 29.4544C29.4812 29.3379 29.5421 29.2041 29.5728 29.0619C29.8598 28.0892 30.0678 27.0948 30.1948 26.0885C30.3304 24.6979 30.2554 23.2949 29.9723 21.9267C29.5771 20.1018 28.8706 18.3587 27.8838 16.7737C26.239 14.0589 24.4216 11.4526 22.4425 8.97092C20.1164 6.03287 17.7497 3.13021 15.4135 0.20227C15.1859 -0.0809155 15.0443 -0.0404604 14.837 0.20227C14.483 0.637163 14.1088 1.05183 13.7599 1.49683C11.4489 4.41972 9.10247 7.3072 6.83698 10.2604C4.98996 12.6268 3.32324 15.1286 1.85089 17.7446C0.824221 19.6156 0.210358 21.6848 0.0506325 23.8129C0.0139389 24.9817 0.085036 26.1514 0.263022 27.3072C0.338747 27.8775 0.467411 28.4396 0.647346 28.9861C0.681273 29.1269 0.743388 29.2594 0.82994 29.3756C0.916492 29.4917 1.02569 29.5891 1.15093 29.6619C1.27617 29.7347 1.41486 29.7813 1.55863 29.799C1.7024 29.8167 1.84827 29.8051 1.98742 29.7649C2.2604 29.6751 2.48952 29.4857 2.62916 29.2346C2.7688 28.9834 2.80869 28.6889 2.7409 28.4096C2.48029 27.1969 2.29619 25.969 2.1897 24.7332ZM15.1707 40C15.8433 39.9343 16.5563 39.8736 17.2643 39.7826C17.3351 39.7548 17.3983 39.7105 17.4484 39.6533C17.4986 39.5961 17.5343 39.5277 17.5525 39.4539C17.8812 38.0733 18.1846 36.6827 18.5032 35.2971C19.0089 33.1884 19.5146 31.0796 19.9647 28.9709C19.99 28.7424 19.99 28.5117 19.9647 28.2832C19.7118 28.3641 19.459 28.4349 19.2112 28.5209C19.1657 28.5209 19.1303 28.5866 19.0898 28.6169C18.3465 29.2086 17.9925 30.0632 17.5374 30.8521C17.1908 31.5977 16.7031 32.2692 16.1012 32.8293C15.8268 33.063 15.4781 33.1914 15.1176 33.1914C14.7572 33.1914 14.4085 33.063 14.1341 32.8293C13.5003 32.2356 12.9929 31.5201 12.6423 30.7257C12.2859 29.8987 11.7525 29.1599 11.0797 28.5613C10.8795 28.4191 10.655 28.3146 10.4173 28.2528C10.2049 28.1972 10.0683 28.2528 10.129 28.5512C10.4982 30.1391 10.8623 31.732 11.2264 33.3148C11.4691 34.3767 11.7068 35.4235 11.9495 36.4804C12.1922 37.5373 12.4097 38.5032 12.6524 39.5145C12.6742 39.577 12.7109 39.6331 12.7594 39.6781C12.8079 39.7231 12.8666 39.7555 12.9305 39.7724C13.6537 39.8635 14.3819 39.9494 15.1707 40ZM21.679 31.3123C21.6942 31.0394 21.6942 30.7659 21.679 30.493C21.6233 29.8154 21.5829 29.1226 21.0418 28.622C20.9281 28.5236 20.7826 28.4697 20.6322 28.4703C20.5715 28.4703 20.4855 28.6675 20.4602 28.7788C20.1265 30.2149 19.818 31.6561 19.4893 33.0872C19.014 35.1538 18.5319 37.2221 18.043 39.292C17.9773 39.5803 18.0734 39.6561 18.3465 39.5904C18.7611 39.4842 19.191 39.4235 19.6006 39.2819C20.9966 38.8215 22.3236 38.1733 23.5449 37.3552C25.6404 35.936 27.3475 34.0151 28.5108 31.7674C28.5563 31.6713 28.6069 31.5095 28.5614 31.4589C28.5183 31.4216 28.4666 31.3957 28.411 31.3833C28.3554 31.371 28.2976 31.3726 28.2428 31.3881C27.8515 31.5074 27.4774 31.6774 27.1303 31.8938C26.5083 32.3641 25.9621 32.8698 25.3857 33.3755C24.912 33.8306 24.344 34.1759 23.7219 34.3868C23.3813 34.4748 23.0209 34.4441 22.7001 34.2998C22.3793 34.1555 22.1172 33.9062 21.9571 33.5929C21.7067 32.8603 21.6119 32.0835 21.679 31.3123ZM4.40461 24.4905C4.40461 24.8546 4.45013 25.2996 4.51081 25.7345C4.52599 25.8975 4.57332 26.0559 4.65006 26.2005C4.72681 26.3451 4.83145 26.473 4.95793 26.5769C5.08442 26.6809 5.23025 26.7587 5.38699 26.8059C5.54373 26.8531 5.70827 26.8688 5.87111 26.8521C6.03051 26.8338 6.18383 26.7802 6.31999 26.6954C6.45614 26.6105 6.57173 26.4964 6.65836 26.3614C6.745 26.2263 6.80053 26.0737 6.82093 25.9146C6.84132 25.7554 6.82608 25.5937 6.7763 25.4412C6.39131 23.2452 6.86178 20.9851 8.09109 19.1252C9.64181 16.743 11.3303 14.4533 13.148 12.268C13.6282 11.6842 14.0789 11.0766 14.4982 10.4475C14.6065 10.2506 14.6416 10.0217 14.5971 9.80132C14.5527 9.58099 14.4316 9.38353 14.2554 9.24399C14.1081 9.08249 13.9062 8.98125 13.6886 8.95977C13.4711 8.9383 13.2533 8.99811 13.0772 9.12768C12.8672 9.26151 12.6838 9.43294 12.5361 9.63337C10.8269 11.8736 9.10247 14.1087 7.43369 16.4045C6.3981 17.7478 5.57438 19.2417 4.99121 20.8344C4.5961 22.0126 4.39791 23.2478 4.40461 24.4905ZM1.66378 31.4387C1.66995 31.5117 1.68008 31.5842 1.69412 31.6561C1.71235 31.7181 1.7343 31.7789 1.75986 31.8382C2.55354 33.3477 3.59256 34.7148 4.83445 35.8837C6.18403 37.1591 7.76252 38.168 9.48679 38.8571C10.2453 39.1555 11.0443 39.3628 11.8332 39.6005C12.0911 39.6764 12.2023 39.6005 12.1265 39.3021C11.7877 37.8812 11.4489 36.4551 11.1151 35.0341C10.6398 32.9456 10.1745 30.8571 9.69918 28.7737C9.67389 28.6523 9.59298 28.4855 9.51713 28.4703C9.44945 28.4617 9.3807 28.4702 9.31712 28.4949C9.25353 28.5196 9.19713 28.5598 9.15304 28.6119C8.921 28.9357 8.74966 29.2989 8.64735 29.6839C8.55127 30.4172 8.61195 31.1707 8.57149 31.914C8.55724 32.3685 8.49967 32.8206 8.39956 33.2642C8.30721 33.6359 8.08161 33.9607 7.76559 34.1769C7.44957 34.3932 7.06513 34.4859 6.68527 34.4374C6.28214 34.3172 5.90248 34.1291 5.56264 33.8812C4.73837 33.2592 3.97478 32.5664 3.16062 31.9343C2.97156 31.7343 2.73587 31.5844 2.47464 31.4979C2.21341 31.4114 1.9348 31.3911 1.66378 31.4387ZM15.0696 29.5626C14.8502 29.5252 14.6253 29.5365 14.4108 29.5958C14.1963 29.655 13.9975 29.7607 13.8284 29.9054C13.6594 30.0501 13.5242 30.2302 13.4325 30.433C13.3408 30.6357 13.2948 30.8561 13.2978 31.0787C13.3009 31.3012 13.3528 31.5203 13.4499 31.7205C13.5471 31.9207 13.6871 32.097 13.8601 32.2371C14.033 32.3771 14.2346 32.4774 14.4506 32.5308C14.6667 32.5842 14.8918 32.5895 15.1101 32.5461C15.3294 32.5835 15.5543 32.5722 15.7688 32.5129C15.9833 32.4537 16.1821 32.348 16.3512 32.2033C16.5203 32.0586 16.6555 31.8785 16.7472 31.6758C16.8389 31.473 16.8848 31.2526 16.8818 31.0301C16.8788 30.8076 16.8269 30.5884 16.7297 30.3882C16.6325 30.188 16.4925 30.0117 16.3196 29.8716C16.1467 29.7316 15.945 29.6313 15.729 29.5779C15.513 29.5245 15.2879 29.5193 15.0696 29.5626ZM23.5601 31.287C23.2087 31.287 22.8717 31.4266 22.6233 31.675C22.3748 31.9235 22.2352 32.2605 22.2352 32.6119C22.2352 32.9633 22.3748 33.3003 22.6233 33.5487C22.8717 33.7972 23.2087 33.9368 23.5601 33.9368C23.9092 33.9292 24.2421 33.7882 24.4904 33.5427C24.7388 33.2972 24.8836 32.9659 24.8951 32.6169C24.8913 32.2675 24.7522 31.9332 24.507 31.6842C24.2618 31.4353 23.9297 31.2911 23.5803 31.2819L23.5601 31.287ZM5.49185 32.6068C5.48917 32.7786 5.52044 32.9492 5.58386 33.1088C5.64728 33.2685 5.7416 33.414 5.86141 33.5371C5.98122 33.6602 6.12416 33.7584 6.28203 33.8262C6.4399 33.8939 6.60959 33.9298 6.78135 33.9317C7.13702 33.924 7.47597 33.7793 7.72752 33.5277C7.97907 33.2762 8.12381 32.9372 8.13154 32.5815C8.11721 32.2327 7.96882 31.9029 7.71728 31.6607C7.46575 31.4186 7.13048 31.2829 6.78135 31.2819C6.44022 31.2792 6.11192 31.4118 5.86833 31.6507C5.62475 31.8895 5.48574 32.2151 5.48173 32.5563L5.49185 32.6068Z" fill="white"/>
<path d="M2.72059 28.4045C2.78838 28.6838 2.74849 28.9783 2.60885 29.2295C2.46922 29.4806 2.24009 29.67 1.96711 29.7598C1.82764 29.7986 1.68181 29.8092 1.5382 29.7909C1.39458 29.7726 1.25605 29.7258 1.13076 29.6533C1.00546 29.5808 0.895919 29.4839 0.808551 29.3685C0.721183 29.253 0.657752 29.1213 0.62198 28.981C0.446647 28.435 0.318076 27.875 0.237657 27.3072C0.0613558 26.1614 -0.00973702 25.0019 0.0252671 23.8432C0.184206 21.7031 0.799789 19.6218 1.83058 17.7395C3.31125 15.1275 4.97934 12.6262 6.82173 10.2554C9.10239 7.30213 11.4286 4.41464 13.7396 1.51704C14.0935 1.07204 14.4677 0.662428 14.8167 0.222479C15.024 -0.0354225 15.1707 -0.0657638 15.3982 0.222479C17.7345 3.15042 20.1011 6.05307 22.4273 8.99113C24.4031 11.4636 26.214 14.0634 27.8483 16.7737C28.8415 18.3554 29.5485 20.0997 29.9368 21.9267C30.2245 23.2959 30.3012 24.7011 30.1643 26.0935C30.036 27.0996 29.828 28.0938 29.5423 29.067C29.5118 29.2097 29.4508 29.3442 29.3633 29.4611C29.2759 29.578 29.1643 29.6746 29.036 29.7443C28.9077 29.814 28.7658 29.855 28.6202 29.8647C28.4745 29.8744 28.3285 29.8524 28.1921 29.8002C27.9374 29.7081 27.7259 29.5247 27.5989 29.2854C27.4718 29.0462 27.4381 28.7683 27.5044 28.5057C27.7715 27.3419 27.9407 26.1578 28.0101 24.9658C28.0801 22.7904 27.5816 20.6344 26.5638 18.7105C25.1049 16.1027 23.4285 13.6228 21.5524 11.2971C19.5297 8.69783 17.4412 6.15421 15.3932 3.58531C15.1808 3.32235 15.0341 3.29707 14.8116 3.58531C12.2832 6.80655 9.6991 9.99239 7.22628 13.249C6.11444 14.7419 5.07816 16.2895 4.12135 17.8862C2.81437 19.928 2.13727 22.3093 2.17445 24.7332C2.17445 24.7332 2.45257 27.1959 2.72059 28.4045Z" fill="white"/>
<path d="M15.1707 40C14.397 39.9292 13.6537 39.8685 12.9558 39.7825C12.8919 39.7655 12.8331 39.7332 12.7846 39.6882C12.7361 39.6432 12.6994 39.5871 12.6777 39.5246C12.4299 38.5132 12.2074 37.5019 11.9748 36.4905C11.7421 35.4791 11.4944 34.3818 11.2516 33.3249C10.8875 31.737 10.5285 30.1441 10.1543 28.5562C10.0885 28.2832 10.2251 28.2022 10.4425 28.2629C10.6781 28.3237 10.9008 28.4265 11.0999 28.5663C11.8534 29.1125 12.2377 29.9418 12.6676 30.7307C13.0144 31.5203 13.5186 32.2309 14.1492 32.8192C14.4237 33.0529 14.7723 33.1812 15.1328 33.1812C15.4932 33.1812 15.8419 33.0529 16.1164 32.8192C16.7116 32.2597 17.1925 31.5899 17.5323 30.847C17.9874 30.0632 18.3363 29.2035 19.0848 28.6169C19.1859 28.5478 19.2945 28.4902 19.4084 28.445C19.6612 28.359 19.7067 28.359 19.9646 28.2781C19.9926 28.5065 19.9926 28.7374 19.9646 28.9658C19.459 31.0746 18.9887 33.1833 18.5032 35.287C18.1897 36.6776 17.8863 38.0632 17.5525 39.4437C17.5328 39.5175 17.4966 39.5859 17.4467 39.6437C17.3968 39.7015 17.3344 39.7472 17.2643 39.7775C16.5361 39.8736 15.818 39.9494 15.1707 40Z" fill="white"/>
<path d="M21.6788 31.3123C21.6123 32.0794 21.7105 32.8518 21.967 33.5778C22.1247 33.8938 22.3857 34.1464 22.7068 34.2935C23.0278 34.4407 23.3895 34.4736 23.7319 34.3869C24.3524 34.1727 24.9198 33.8278 25.3956 33.3755C25.9721 32.8698 26.5233 32.3641 27.1301 31.909C27.4791 31.6927 27.8548 31.5227 28.2477 31.4033C28.3022 31.3902 28.3591 31.3903 28.4136 31.4034C28.4681 31.4166 28.5187 31.4426 28.5612 31.4792C28.6118 31.5297 28.5612 31.6966 28.5106 31.7876C27.3453 34.0255 25.6403 35.9374 23.5498 37.3502C22.3248 38.1638 20.9966 38.8101 19.6004 39.2718C19.1958 39.4134 18.766 39.4792 18.3463 39.5854C18.0783 39.6511 17.9771 39.5854 18.0429 39.287C18.5485 37.2187 19.0138 35.1454 19.4891 33.0822C19.8178 31.646 20.1314 30.2048 20.4601 28.7737C20.4601 28.6574 20.5713 28.4652 20.632 28.4652C20.7829 28.4617 20.9294 28.516 21.0416 28.617C21.5776 29.1226 21.6181 29.8104 21.6838 30.4829C21.699 30.7611 21.6788 31.0341 21.6788 31.3123Z" fill="white"/>
<path d="M4.40463 24.4905C4.39986 23.2472 4.59449 22.0111 4.98111 20.8293C5.57033 19.2384 6.3954 17.7451 7.42865 16.3995C9.10248 14.1087 10.8218 11.8736 12.531 9.6081C12.6788 9.40767 12.8622 9.23624 13.0721 9.10241C13.2494 8.97358 13.4678 8.91425 13.6859 8.93569C13.904 8.95713 14.1066 9.05783 14.2554 9.21872C14.436 9.35499 14.5604 9.55268 14.6051 9.77444C14.6499 9.99619 14.6118 10.2267 14.4982 10.4223C14.0886 11.0493 13.6183 11.6511 13.148 12.2377C11.3318 14.433 9.64339 16.7309 8.0911 19.1201C6.85941 20.981 6.38544 23.2423 6.76619 25.4412C6.89767 26.22 6.56392 26.7358 5.86101 26.847C5.69829 26.8631 5.534 26.8469 5.37754 26.7994C5.22108 26.7519 5.07551 26.6741 4.94917 26.5703C4.82283 26.4665 4.71819 26.3388 4.64124 26.1945C4.56429 26.0502 4.51653 25.8922 4.50071 25.7295C4.45014 25.2845 4.42991 24.8496 4.40463 24.4905Z" fill="white"/>
<path d="M1.66382 31.4387C1.93254 31.3953 2.20781 31.4188 2.46532 31.507C2.72284 31.5952 2.95469 31.7454 3.14043 31.9443C3.94953 32.5714 4.71312 33.2693 5.56268 33.8811C5.912 34.1271 6.30246 34.3086 6.71565 34.4172C7.36799 34.6093 8.23272 34.0328 8.42488 33.249C8.53235 32.8051 8.59002 32.3505 8.59682 31.8938C8.63221 31.1504 8.59681 30.3767 8.67267 29.6637C8.76973 29.2783 8.94155 28.9158 9.17836 28.5967C9.222 28.5452 9.27742 28.5049 9.33992 28.4794C9.40243 28.4539 9.47017 28.4438 9.5374 28.45C9.61831 28.45 9.69922 28.6422 9.7245 28.7535C10.1998 30.8419 10.6651 32.9304 11.1404 35.0139C11.4641 36.4399 11.8079 37.8609 12.1518 39.2819C12.2277 39.5803 12.1114 39.651 11.8535 39.5803C11.0696 39.3426 10.2706 39.1352 9.51211 38.8369C7.78784 38.1477 6.20935 37.1389 4.85977 35.8634C3.61872 34.6938 2.57981 33.3268 1.78518 31.8179C1.75364 31.7594 1.73146 31.6962 1.71944 31.6308C1.69774 31.5677 1.67918 31.5036 1.66382 31.4387Z" fill="white"/>
<path d="M15.0695 29.5626C15.2878 29.5193 15.5129 29.5245 15.7289 29.5779C15.945 29.6313 16.1466 29.7316 16.3195 29.8716C16.4925 30.0117 16.6325 30.1881 16.7296 30.3883C16.8268 30.5884 16.8787 30.8076 16.8817 31.0301C16.8847 31.2526 16.8388 31.473 16.7471 31.6758C16.6554 31.8785 16.5202 32.0586 16.3511 32.2033C16.1821 32.348 15.9832 32.4537 15.7687 32.5129C15.5542 32.5722 15.3293 32.5835 15.11 32.5461C14.7057 32.5449 14.3179 32.3855 14.0296 32.1019C13.7414 31.8184 13.5756 31.4333 13.5676 31.0291C13.5806 30.6382 13.7441 30.2674 14.024 29.9941C14.3038 29.7209 14.6784 29.5663 15.0695 29.5626Z" fill="white"/>
<path d="M23.56 31.2819C23.734 31.2819 23.9063 31.3162 24.067 31.3828C24.2278 31.4494 24.3738 31.5469 24.4969 31.67C24.6199 31.793 24.7175 31.9391 24.7841 32.0998C24.8506 32.2606 24.8849 32.4328 24.8849 32.6068C24.8849 32.7808 24.8506 32.9531 24.7841 33.1138C24.7175 33.2746 24.6199 33.4206 24.4969 33.5437C24.3738 33.6667 24.2278 33.7643 24.067 33.8309C23.9063 33.8975 23.734 33.9317 23.56 33.9317C23.2086 33.9317 22.8716 33.7921 22.6232 33.5437C22.3747 33.2952 22.2351 32.9582 22.2351 32.6068C22.2351 32.2554 22.3747 31.9184 22.6232 31.67C22.8716 31.4215 23.2086 31.2819 23.56 31.2819Z" fill="white"/>
<path d="M5.4918 32.6068C5.48572 32.4386 5.51303 32.2709 5.57214 32.1133C5.63125 31.9557 5.72099 31.8114 5.83618 31.6887C5.95137 31.566 6.08973 31.4673 6.24327 31.3984C6.39681 31.3294 6.56249 31.2916 6.73074 31.287H6.78636C7.13775 31.287 7.47474 31.4266 7.72321 31.675C7.97168 31.9235 8.11127 32.2605 8.11127 32.6119C8.11127 32.9633 7.97168 33.3003 7.72321 33.5487C7.47474 33.7972 7.13775 33.9368 6.78636 33.9368C6.61373 33.9355 6.44308 33.8999 6.28429 33.8322C6.1255 33.7645 5.98174 33.6659 5.86132 33.5422C5.74091 33.4185 5.64625 33.2721 5.58282 33.1115C5.51938 32.951 5.48845 32.7794 5.4918 32.6068Z" fill="white"/>
<path d="M91.8282 13.7649C92.0204 13.9064 92.076 13.9772 92.1569 14.0025C93.8105 14.5082 94.8826 15.5702 94.8978 17.3856C94.8978 19.3274 94.0381 20.8496 92.2227 21.5879C91.1914 21.9798 90.1037 22.2035 89.0014 22.2503C87.2113 22.3565 85.406 22.2503 83.6057 22.2958C82.9382 22.2958 82.7663 22.048 82.7713 21.426C82.7916 16.5209 82.7916 11.6157 82.7713 6.71049C82.7713 6.11378 82.9231 5.89633 83.5501 5.9115C85.406 5.9469 87.2619 5.88116 89.1127 5.95196C89.9722 6.00321 90.8217 6.16293 91.6411 6.42731C92.4085 6.6217 93.0911 7.06222 93.5842 7.68144C94.0774 8.30067 94.3541 9.06445 94.3719 9.85588C94.5286 11.5803 93.6993 12.7332 92.2378 13.507L91.8282 13.7649ZM85.9016 20C87.4186 19.8938 88.8447 19.8938 90.2606 19.6662C91.3124 19.4994 91.8586 18.6144 91.899 17.4867C91.9344 16.4753 91.4641 15.5449 90.5488 15.3881C89.0318 15.1353 87.4844 15.1049 85.9016 14.9785V20ZM85.8459 10.6195C85.8214 11.228 85.8298 11.8374 85.8712 12.445C85.8712 12.6574 86.205 13.0013 86.3769 13.0013C87.3903 13.032 88.4045 12.9864 89.411 12.8647C89.6972 12.8565 89.9785 12.7884 90.2367 12.6648C90.4949 12.5411 90.7243 12.3648 90.9101 12.147C91.096 11.9292 91.2341 11.6749 91.3156 11.4005C91.3971 11.1261 91.4201 10.8376 91.3832 10.5537C91.3529 9.21365 90.7258 8.53097 89.3099 8.35398C88.9645 8.30709 88.6167 8.28007 88.2682 8.27307C85.8409 8.2225 85.8409 8.2225 85.8409 10.6195H85.8459Z" fill="white"/>
<path d="M133.851 11.4286V5.53229H136.647V22.0987C135.13 22.6397 134.539 22.3667 133.937 20.799C133.8 20.8951 133.664 20.976 133.547 21.0772C130.786 23.6056 127.277 22.6296 126.321 19.019C125.664 16.526 125.745 14.0329 127.58 11.9647C128.277 11.1508 129.247 10.6201 130.309 10.4729C131.37 10.3257 132.448 10.5721 133.34 11.1657C133.466 11.2365 133.583 11.2921 133.851 11.4286ZM133.851 16.2681V14.7004C133.851 13.3553 133.264 12.7131 131.894 12.5968C131.583 12.5471 131.265 12.5594 130.958 12.6331C130.652 12.7067 130.363 12.8401 130.108 13.0258C129.853 13.2114 129.638 13.4455 129.474 13.7147C129.31 13.9838 129.201 14.2828 129.153 14.5942C128.958 15.874 128.949 17.1754 129.128 18.4577C129.32 19.8079 130.316 20.349 131.702 20.1821C132.294 20.1431 132.848 19.8767 133.249 19.4385C133.649 19.0002 133.865 18.4242 133.851 17.8306V16.2681Z" fill="white"/>
<path d="M101.047 16.6878C101.011 10.7206 106.402 9.54744 109.603 11.1505C110.607 11.6359 111.407 12.462 111.858 13.4817C112.256 14.3508 112.476 15.2907 112.505 16.2461C112.533 17.2015 112.37 18.1529 112.025 19.0443C111.095 21.5171 108.693 22.7712 105.815 22.3869C104.612 22.2498 103.492 21.705 102.641 20.843C101.79 19.981 101.259 18.8537 101.138 17.6486C101.067 17.239 101.057 16.8344 101.047 16.6878ZM103.813 16.5664C103.934 17.2949 104.102 18.0146 104.319 18.7206C104.718 19.8281 105.578 20.3085 106.847 20.2883C108.116 20.268 108.87 19.7826 109.254 18.66C109.747 17.3129 109.768 15.8387 109.315 14.4779C109.137 13.9435 108.796 13.4786 108.34 13.1491C107.883 12.8196 107.334 12.6423 106.771 12.6423C106.208 12.6423 105.659 12.8196 105.203 13.1491C104.746 13.4786 104.405 13.9435 104.228 14.4779C104.055 15.1691 103.924 15.8699 103.833 16.5765L103.813 16.5664Z" fill="white"/>
<path d="M124.941 16.4804C124.941 20.9102 121.33 23.5095 117.123 22.1087C116.654 21.9444 116.21 21.7164 115.803 21.4311C113.669 19.9646 112.86 16.6625 113.922 13.8812C114.807 11.5752 117.163 10.225 119.798 10.5032C123.09 10.8622 124.946 13.0266 124.941 16.4804ZM122.094 16.3843C122.055 15.8072 121.981 15.233 121.871 14.665C121.727 14.059 121.377 13.5219 120.881 13.1452C120.385 12.7686 119.773 12.5757 119.151 12.5996C118.528 12.6235 117.934 12.8626 117.468 13.2761C117.002 13.6897 116.694 14.252 116.597 14.8673C116.45 15.8937 116.45 16.9357 116.597 17.9621C116.809 19.5095 117.785 20.2478 119.282 20.2478C120.779 20.2478 121.684 19.464 121.972 17.9368C122.058 17.4564 122.068 16.9659 122.129 16.3641L122.094 16.3843Z" fill="white"/>
<path d="M77.4565 15.5955C77.5475 14.6144 77.5879 13.6941 76.7839 13.067C75.9799 12.44 75.0848 12.622 74.2099 12.9356C73.9971 13.0213 73.7909 13.1228 73.593 13.239C72.2074 13.952 71.7523 13.7447 71.1809 12.2276C72.9912 10.7105 75.0443 10.0835 77.3806 10.7105C78.1872 10.9365 78.8971 11.4212 79.4015 12.0899C79.9058 12.7587 80.1765 13.5746 80.172 14.4122C80.2529 16.8445 80.1973 19.282 80.2276 21.7143C80.2276 22.1846 80.0355 22.2959 79.6056 22.3211C78.6196 22.3818 77.9015 22.1037 77.7751 20.8749C76.4552 22.0026 75.1202 22.5942 73.5273 22.4577C72.0102 22.3211 70.9331 21.4918 70.66 20.2175C70.3364 18.7004 70.7864 17.4463 72.2479 16.8193C73.5475 16.2579 75.0039 16.0607 76.3996 15.7219C76.7493 15.6608 77.1022 15.6186 77.4565 15.5955ZM77.3705 17.1935C76.2276 17.4665 75.1303 17.6992 74.0684 18.0076C73.7721 18.1 73.5237 18.3046 73.3763 18.5777C73.2288 18.8508 73.1941 19.1707 73.2795 19.4691C73.3958 20.172 73.8661 20.4046 74.4931 20.4804C76.5513 20.7485 77.7548 19.4943 77.3705 17.1884V17.1935Z" fill="white"/>
<path d="M41.8508 10.756C43.7876 10.4779 44.0455 10.5993 44.4652 11.9039C45.0596 11.5063 45.6815 11.1514 46.3262 10.842C49.1176 9.74464 51.6309 11.1859 51.8534 14.1644C52.0363 16.6892 52.0464 19.2235 51.8837 21.7497C51.8129 22.8875 50.6094 22.0834 49.952 22.2554C49.4766 22.3919 49.1226 22.2554 49.1277 21.5929C49.158 19.5702 49.1277 17.5828 49.1277 15.5853C49.1303 15.1493 49.105 14.7135 49.0518 14.2807C49.0372 14.0478 48.9762 13.8201 48.8725 13.6111C48.7687 13.402 48.6244 13.2158 48.4478 13.0632C48.2712 12.9106 48.0659 12.7948 47.8441 12.7225C47.6222 12.6502 47.3881 12.6229 47.1555 12.6422C45.5525 12.6675 44.6271 13.6132 44.6271 15.1707V22.2503C43.8473 22.295 43.0655 22.295 42.2857 22.2503C42.1138 22.2503 41.8761 21.7446 41.8761 21.4968C41.8407 18.8622 41.8761 16.2175 41.8761 13.5727C41.8508 12.6422 41.8508 11.7118 41.8508 10.756Z" fill="white"/>
<path d="M61.7396 11.8989C60.9406 13.4159 60.9507 13.3654 59.4336 12.8496C58.8115 12.6218 58.1433 12.5489 57.4867 12.6372C57.2396 12.7114 57.0103 12.8353 56.8129 13.0014C56.6155 13.1675 56.4542 13.3723 56.3388 13.603C56.0607 14.1846 56.5714 14.579 57.067 14.7965C57.8862 15.1504 58.7408 15.4437 59.5955 15.7573C60.9153 16.263 61.8761 17.0316 61.9065 18.574C61.9545 19.3083 61.7624 20.0384 61.3592 20.6541C60.9561 21.2698 60.3637 21.7378 59.6713 21.9874C58.6412 22.4216 57.5133 22.5709 56.4057 22.4197C55.2981 22.2685 54.2515 21.8222 53.3755 21.1277C53.8812 19.5651 54.2908 19.4286 55.7067 20.0253C56.428 20.2929 57.1929 20.4232 57.9621 20.4096C58.1238 20.426 58.2872 20.408 58.4415 20.3569C58.5958 20.3057 58.7376 20.2224 58.8574 20.1126C58.9773 20.0028 59.0726 19.8688 59.137 19.7195C59.2015 19.5703 59.2336 19.4091 59.2314 19.2465C59.1814 18.9932 59.078 18.7535 58.928 18.5433C58.778 18.3332 58.5849 18.1574 58.3616 18.0278C57.5742 17.6638 56.7633 17.3529 55.9343 17.0973C54.2048 16.4096 53.5373 15.4539 53.6233 13.8407C53.664 13.0937 53.9535 12.3817 54.4456 11.8181C54.9376 11.2546 55.6041 10.8718 56.3388 10.7307C57.2639 10.4485 58.2458 10.4077 59.1912 10.6122C60.1365 10.8167 61.0138 11.2596 61.7396 11.8989Z" fill="white"/>
<path d="M67.0544 12.7737C67.0544 15.019 67.019 17.1277 67.0544 19.2415C67.0797 19.9848 67.7016 20.445 68.3186 20.1366C69.3603 19.6309 69.7193 20.2124 70.0986 20.9457C70.1643 21.0771 70.2351 21.1985 70.3059 21.3148C69.7396 22.3262 67.1504 22.6701 66.1188 22.2756C64.8951 21.8104 64.2478 20.8597 64.2326 19.2415C64.2326 17.1226 64.2326 15.0139 64.2326 12.8293C63.9191 12.799 63.6662 12.7636 63.4134 12.7636C62.8167 12.7636 62.5284 12.5057 62.488 11.8736C62.4475 11.2415 62.6195 10.9128 63.2668 10.9178C64.5765 10.9178 64.5209 10.4678 64.5765 9.60305C64.6119 9.02657 64.531 8.46525 64.6169 7.89888C64.7029 7.33251 64.4905 7.12012 65.8458 7.11001C66.9937 7.11001 67.0038 7.05944 67.0038 8.21747C67.0038 8.79395 67.0291 9.38055 67.0038 9.95704C66.9785 10.5335 67.1555 10.8167 67.7826 10.7712C68.4096 10.7257 68.9406 10.7712 69.5221 10.7712C70.3919 10.7712 70.0936 11.3982 70.1188 11.818C70.1441 12.2377 70.3009 12.799 69.512 12.7737C68.7231 12.7484 67.914 12.7737 67.0544 12.7737Z" fill="white"/>
<path d="M36.2883 22.2857V5.93173C37.1632 5.93173 38.0228 5.90139 38.8724 5.96713C39.0241 5.96713 39.2668 6.40708 39.2668 6.6397C39.2972 8.5866 39.2668 10.5234 39.2668 12.4703C39.2668 15.4539 39.2668 18.4425 39.2668 21.4362C39.2668 22.0632 39.1 22.3413 38.4375 22.2958C37.7751 22.2503 37.0823 22.2857 36.2883 22.2857Z" fill="white"/>
<path d="M96.5866 5.51709H99.3123C99.3123 5.78005 99.3679 6.02278 99.3679 6.28068C99.3679 11.2971 99.3679 16.3135 99.3679 21.3249C99.3679 22.1037 99.1454 22.3363 98.3869 22.2908C96.5715 22.2453 96.5664 22.2908 96.5664 20.4299V5.51709H96.5866Z" fill="white"/>
<path d="M62.1996 29.4412L62.5385 30.0733H61.2742C61.4376 30.2882 61.5735 30.5227 61.6788 30.7712C61.7573 30.9482 61.8003 31.1389 61.8052 31.3325C61.8052 31.7779 61.6674 32.2124 61.4108 32.5765C61.0875 33.0147 60.6575 33.3628 60.1617 33.5879L61.4664 35.2162L61.0214 35.5702L59.9544 33.9621C59.8843 33.873 59.7953 33.8004 59.6939 33.7497C59.5925 33.699 59.4811 33.6714 59.3678 33.6688C59.2435 33.6619 59.1232 33.6229 59.0186 33.5555C58.914 33.4881 58.8287 33.3947 58.7711 33.2845C58.7025 33.1567 58.6644 33.0147 58.6598 32.8698C58.6598 32.5967 58.8115 32.4602 59.1099 32.4602C59.1537 32.4647 59.1961 32.4783 59.2344 32.5001C59.2727 32.5218 59.306 32.5513 59.3324 32.5866C59.4739 32.7459 59.604 32.9148 59.7218 33.0923C60.2176 32.9449 60.641 32.6187 60.9101 32.177C60.3137 32.0638 59.7565 31.7991 59.2919 31.4084C59.1886 31.3113 59.1069 31.1936 59.052 31.0629C58.9971 30.9323 58.9703 30.7915 58.9733 30.6498C58.9737 30.5511 58.9926 30.4533 59.029 30.3616C59.0662 30.2715 59.1119 30.1851 59.1655 30.1037H57.967L57.6484 29.4412H62.1996ZM61.0214 31.818C61.0214 31.7421 61.0669 31.6561 61.0922 31.5651C61.1163 31.447 61.1281 31.3267 61.1276 31.2061C61.1466 30.8776 61.0693 30.5507 60.9051 30.2655C60.8464 30.1659 60.7629 30.0833 60.6628 30.0257C60.5626 29.9681 60.4492 29.9374 60.3336 29.9368C60.2474 29.9333 60.1617 29.9519 60.0847 29.9908C60.0077 30.0298 59.942 30.0878 59.8937 30.1593C59.7727 30.3245 59.712 30.5262 59.7218 30.7307C59.7268 31.2314 60.1769 31.5904 61.0264 31.818H61.0214Z" fill="white"/>
<path d="M64.4349 30.0733H63.4235V35.3578L62.7459 34.9583V30.0733H61.694L61.3552 29.4412H64.0809L64.4349 30.0733Z" fill="white"/>
<path d="M66.4981 30.0733H65.4867V35.3578L64.8091 34.9583V30.0733H63.7977L63.4539 29.4412H66.1795L66.4981 30.0733Z" fill="white"/>
<path d="M65.2846 29.4513H64.9356C64.7974 29.2693 64.6002 29.0266 64.344 28.7232C64.1164 28.4551 63.9445 28.263 63.8383 28.1416C63.7487 28.05 63.6466 27.9717 63.5349 27.909C63.4324 27.8477 63.3155 27.8145 63.1961 27.8129C63.1144 27.8188 63.0342 27.8376 62.9584 27.8685L62.6297 27.9697C62.5233 27.8232 62.4302 27.6675 62.3516 27.5044C62.2607 27.3594 62.1892 27.2029 62.1392 27.0392C62.1392 26.9886 62.2049 26.9482 62.3263 26.9229C62.4477 26.8972 62.5713 26.8837 62.6954 26.8824C62.8741 26.8936 63.0475 26.9474 63.2011 27.0392C63.4273 27.1706 63.6277 27.342 63.7928 27.5449C63.904 27.6764 64.1063 27.9292 64.3945 28.3085L65.2846 29.4513Z" fill="white"/>
<path d="M68.622 30.0733H67.6106V35.3578L66.933 34.9583V30.0733H65.8913L65.5525 29.4412H68.268L68.622 30.0733Z" fill="white"/>
<path d="M67.0746 29.4513C66.9705 29.3134 66.8823 29.1641 66.8116 29.0063C66.7544 28.8441 66.7286 28.6725 66.7358 28.5006C66.7392 28.1989 66.8504 27.9083 67.0493 27.6814C67.1916 27.5124 67.3711 27.3788 67.5738 27.291C67.7765 27.2033 67.9969 27.1638 68.2175 27.1757C68.6651 27.2022 69.1024 27.321 69.5019 27.5247C69.9766 27.7395 70.4204 28.0167 70.8218 28.3489V28.7585C70.4558 28.4698 70.0569 28.2253 69.6334 28.0303C69.3046 27.8627 68.9449 27.7645 68.5765 27.7421C68.4126 27.7374 68.2495 27.7665 68.0973 27.8273C67.9451 27.8882 67.807 27.9797 67.6915 28.0961C67.5824 28.194 67.4943 28.3131 67.4326 28.4461C67.3709 28.5791 67.3368 28.7232 67.3325 28.8698C67.3229 29.0605 67.3575 29.2509 67.4336 29.426L67.0746 29.4513Z" fill="white"/>
<path d="M72.6524 30.0733H71.9495V32.6018C71.9517 32.7312 71.923 32.8592 71.8658 32.9753C71.8087 33.0914 71.7247 33.1922 71.6208 33.2693C71.399 33.443 71.1236 33.5342 70.842 33.5272C70.4766 33.4864 70.1343 33.3285 69.866 33.0771C69.692 32.9663 69.5449 32.8179 69.4356 32.6429C69.3262 32.468 69.2573 32.2708 69.2339 32.0658V30.043H68.1821L67.8433 29.4109H72.3136L72.6524 30.0733ZM69.9115 30.0733V32.44C69.9109 32.5284 69.9312 32.6157 69.9708 32.6948C70.0103 32.7739 70.068 32.8425 70.1391 32.8951C70.2416 32.9817 70.3693 33.0331 70.5032 33.0417C71.0089 33.0417 71.2718 32.7586 71.2718 32.2023V30.0733H69.9115Z" fill="white"/>
<path d="M74.6903 30.0733H73.6789V35.3578L72.9963 34.9583V30.0733H71.9596L71.6157 29.4412H74.3363L74.6903 30.0733Z" fill="white"/>
<path d="M74.0783 30.0733L73.7395 29.4412H77.0315L77.3703 30.0733H74.0783ZM78.0075 31.7623H76.4904C75.8128 31.7623 75.4791 32.0657 75.4791 32.6776C75.4906 32.9964 75.581 33.3074 75.742 33.5828C76.0188 34.0579 76.3388 34.5065 76.6978 34.9229L76.3387 35.2162C75.8996 34.6919 75.515 34.1243 75.1908 33.5221C74.9887 33.1433 74.8779 32.7225 74.8672 32.2933C74.8572 32.1221 74.8878 31.9509 74.9563 31.7936C75.0248 31.6363 75.1294 31.4974 75.2616 31.3881C75.4901 31.2081 75.775 31.1149 76.0657 31.1252H78.0025L78.0075 31.7623Z" fill="white"/>
<path d="M79.4689 30.0733H78.4576V35.3578L77.7799 34.9583V30.0733H76.7433L76.3994 29.4412H79.1251L79.4689 30.0733Z" fill="white"/>
<path d="M81.0418 30.0733V32.3135H83.3275V32.9507H81.0418V33.4564C81.0418 33.6486 80.9659 33.7446 80.8142 33.7446C80.708 33.7446 80.4855 33.5676 80.1518 33.2389C79.818 32.9103 79.6461 32.6625 79.6461 32.5714C79.6494 32.5102 79.6724 32.4516 79.7118 32.4046C79.7279 32.3787 79.7502 32.3573 79.7767 32.3422C79.8032 32.3272 79.8331 32.3191 79.8635 32.3186H80.3692V30.0733H78.8522L78.5083 29.4412H82.392L82.7308 30.0733H81.0418Z" fill="white"/>
<path d="M84.7636 30.0733H83.7522V35.3578L83.0746 34.9583V30.0733H82.0328L81.689 29.4412H84.45L84.7636 30.0733Z" fill="white"/>
<path d="M85.7144 37.7244C85.5778 37.5727 85.3402 37.3401 85.0064 37.0215C84.6727 36.7029 84.4451 36.5158 84.3237 36.4046C84.2078 36.3164 84.0823 36.2418 83.9495 36.1821C83.8441 36.1292 83.7285 36.0999 83.6107 36.0961H83.2972C83.2088 36.1012 83.1208 36.113 83.0342 36.1315C82.9208 35.9966 82.8161 35.8548 82.7207 35.7067C82.6552 35.6245 82.607 35.5299 82.5791 35.4286C82.5791 35.3679 82.7207 35.3375 82.9988 35.3375C83.2218 35.3316 83.4442 35.3641 83.6562 35.4336C83.8652 35.5282 84.0594 35.6525 84.2327 35.8028C84.5024 36.0327 84.759 36.2775 85.0013 36.536L85.9065 37.4968L85.7144 37.7244Z" fill="white"/>
<path d="M89.947 30.0733H88.9356V35.3578L88.258 34.9583V30.0733H87.2163L86.8774 29.4412H89.6031L89.947 30.0733Z" fill="white"/>
<path d="M88.3945 29.4513C88.2917 29.3134 88.2052 29.1641 88.1366 29.0063C88.0775 28.8445 88.05 28.6728 88.0557 28.5006C88.0609 28.1983 88.1739 27.9078 88.3742 27.6814C88.5165 27.5124 88.696 27.3788 88.8988 27.291C89.1015 27.2033 89.3218 27.1638 89.5424 27.1757C89.99 27.2022 90.4273 27.321 90.8268 27.5247C91.3006 27.7383 91.7429 28.0156 92.1416 28.3489V28.7585C91.7771 28.4676 91.378 28.223 90.9533 28.0303C90.6263 27.8628 90.2682 27.7646 89.9014 27.7421C89.7368 27.7373 89.5729 27.7663 89.4199 27.8272C89.2668 27.888 89.1278 27.9795 89.0114 28.0961C88.903 28.1943 88.8156 28.3135 88.7548 28.4465C88.6939 28.5795 88.6608 28.7235 88.6574 28.8698C88.6478 29.0605 88.6824 29.2509 88.7586 29.426L88.3945 29.4513Z" fill="white"/>
<path d="M93.3906 30.0733V31.2516C93.3955 31.2817 93.3933 31.3125 93.3843 31.3417C93.3753 31.3708 93.3596 31.3974 93.3385 31.4195C93.3175 31.4416 93.2915 31.4584 93.2629 31.4688C93.2342 31.4791 93.2035 31.4827 93.1732 31.4791H91.1909C91.069 31.4819 90.9523 31.5286 90.8622 31.6106C90.8129 31.6478 90.7731 31.696 90.7459 31.7513C90.7187 31.8066 90.7048 31.8676 90.7054 31.9292C90.7108 32.0121 90.7332 32.093 90.7711 32.1669C90.8476 32.3084 90.9526 32.4323 91.0796 32.531C91.2671 32.3981 91.4782 32.302 91.7016 32.2478C91.9136 32.1963 92.1307 32.1692 92.3489 32.1669C92.7142 32.1925 93.0593 32.3445 93.3249 32.5967C93.473 32.7022 93.5953 32.8398 93.6829 32.9991C93.7704 33.1585 93.8209 33.3355 93.8306 33.5171C93.8362 33.7464 93.757 33.9697 93.608 34.1441C93.4044 34.3441 93.1485 34.4826 92.8697 34.5436L92.4955 33.9671C92.9759 33.8761 93.2187 33.6536 93.2187 33.2996C93.2181 33.2128 93.1972 33.1274 93.1577 33.0501C93.1182 32.9729 93.0611 32.9059 92.9911 32.8546C92.8609 32.7361 92.6918 32.6695 92.5158 32.6675C92.3265 32.6643 92.1386 32.7008 91.9644 32.7749C91.7901 32.8489 91.6334 32.9588 91.5044 33.0974C91.3916 33.1997 91.3004 33.3235 91.2361 33.4616C91.1718 33.5997 91.1358 33.7492 91.1302 33.9014C91.1566 34.0838 91.2218 34.2585 91.3212 34.4137C91.4206 34.569 91.552 34.7012 91.7067 34.8015C92.2115 35.2044 92.788 35.5081 93.4058 35.6966L93.3299 35.9596C92.6256 35.8116 91.9561 35.5301 91.3577 35.1302C91.0985 34.9903 90.8782 34.7881 90.7167 34.5418C90.5551 34.2955 90.4574 34.0128 90.4323 33.7194C90.4294 33.5455 90.4639 33.373 90.5335 33.2137C90.6011 33.0605 90.6972 32.9215 90.8166 32.8041C90.4684 32.5273 90.2403 32.1271 90.1795 31.6865C90.1733 31.5763 90.1888 31.4661 90.2253 31.3619C90.2617 31.2578 90.3183 31.1619 90.3919 31.0797C90.4784 30.9997 90.5807 30.9386 90.6921 30.9003C90.8035 30.862 90.9217 30.8473 91.0391 30.8572H92.6928V30.0733H89.3754L89.0366 29.4412H94.1441L94.4829 30.0733H93.3906Z" fill="white"/>
<path d="M99.5903 30.0733H98.5789V35.3578L97.9013 34.9583V30.0733H96.8596L96.5208 29.4412H99.2464L99.5903 30.0733Z" fill="white"/>
<path d="M98.038 29.4513C97.9353 29.3134 97.8487 29.1641 97.7801 29.0063C97.721 28.8445 97.6936 28.6728 97.6992 28.5006C97.7044 28.1983 97.8174 27.9078 98.0178 27.6814C98.1593 27.5128 98.338 27.3794 98.5398 27.2916C98.7416 27.2039 98.9611 27.1642 99.1809 27.1757C99.6302 27.2015 100.069 27.3203 100.47 27.5246C100.944 27.7383 101.386 28.0156 101.785 28.3489V28.7585C101.421 28.4676 101.022 28.223 100.597 28.0303C100.27 27.8628 99.9117 27.7646 99.545 27.7421C99.3803 27.7373 99.2165 27.7663 99.0634 27.8272C98.9104 27.888 98.7714 27.9795 98.655 28.0961C98.5465 28.1942 98.4592 28.3135 98.3983 28.4465C98.3375 28.5795 98.3044 28.7235 98.301 28.8698C98.2914 29.0605 98.326 29.2509 98.4021 29.426L98.038 29.4513Z" fill="white"/>
<path d="M102.534 29.4412L102.872 30.0733H99.1606L98.8218 29.4412H102.534ZM103.403 33.0266C103.132 33.2711 102.833 33.4832 102.513 33.6587C102.228 33.8029 101.913 33.8774 101.593 33.8761C101.172 33.8625 100.769 33.6973 100.46 33.4109C100.268 33.2672 100.112 33.081 100.004 32.867C99.8964 32.6529 99.8396 32.4167 99.8382 32.177C99.8338 32.0154 99.863 31.8547 99.924 31.705C99.9849 31.5553 100.076 31.4198 100.192 31.3072C100.359 31.1583 100.555 31.0444 100.767 30.9723C100.979 30.9002 101.203 30.8714 101.426 30.8875C101.604 30.8912 101.782 30.9081 101.957 30.9381C102.135 30.9617 102.306 31.0183 102.463 31.1049C102.68 31.2529 102.871 31.4357 103.029 31.646L103.424 32.1517L103.403 33.0266ZM100.45 32.4298C100.433 32.6879 100.518 32.9424 100.688 33.1378C100.775 33.2211 100.878 33.2857 100.991 33.3274C101.104 33.3692 101.225 33.3873 101.345 33.3805C101.68 33.3558 102.002 33.2442 102.281 33.0569C102.639 32.8465 102.962 32.5802 103.236 32.268C103.029 32.0697 102.796 31.8997 102.544 31.7623C102.27 31.6058 101.963 31.5173 101.649 31.5044C101.333 31.4867 101.021 31.5817 100.769 31.7724C100.668 31.8499 100.587 31.9496 100.532 32.0637C100.477 32.1777 100.449 32.3031 100.45 32.4298Z" fill="white"/>
<path d="M104.865 30.0733H103.853V35.3578L103.16 34.9583V30.0733H102.149L101.81 29.4412H104.536L104.865 30.0733Z" fill="white"/>
<path d="M109.451 34.3868C109.258 34.5488 109.044 34.6832 108.814 34.7863C108.584 34.8782 108.339 34.9229 108.091 34.9178C107.695 34.9235 107.311 34.7851 107.009 34.5284C106.872 34.4263 106.76 34.2946 106.681 34.1431C106.602 33.9916 106.559 33.8243 106.554 33.6536C106.551 33.5054 106.581 33.3583 106.641 33.2228C106.701 33.0874 106.791 32.9669 106.903 32.8698C107.189 32.6076 107.567 32.4694 107.955 32.4854H108.218C107.904 32.3186 107.585 32.1517 107.267 31.9798C107.1 32.0708 106.832 32.1972 106.458 32.359C106.084 32.5208 105.775 32.6523 105.522 32.7383L105.082 32.2326C105.431 32.1264 105.689 32.0455 105.851 31.9848C106.122 31.8844 106.387 31.7679 106.645 31.6359C106.419 31.5413 106.224 31.3866 106.081 31.1886C105.937 30.9906 105.851 30.757 105.831 30.5133C105.831 30.3682 105.866 30.2252 105.931 30.0954C105.995 29.9656 106.089 29.8525 106.205 29.7648C106.435 29.5688 106.727 29.4612 107.029 29.4614C107.2 29.463 107.368 29.5014 107.522 29.5738C107.677 29.6462 107.814 29.751 107.924 29.8811C108.172 30.122 108.314 30.4512 108.319 30.7964C108.317 30.9933 108.25 31.1839 108.127 31.3375C107.995 31.5198 107.822 31.6673 107.621 31.7674C107.946 31.925 108.26 32.1041 108.561 32.3034C108.901 32.5036 109.214 32.7466 109.492 33.0265L109.451 34.3868ZM106.968 31.4538C107.193 31.3475 107.392 31.196 107.555 31.0088C107.694 30.8656 107.777 30.6771 107.788 30.4779C107.794 30.4073 107.784 30.3362 107.759 30.27C107.733 30.2038 107.693 30.1441 107.642 30.0955C107.59 30.0469 107.528 30.0105 107.461 29.9892C107.393 29.9678 107.322 29.962 107.252 29.9722C107.154 29.9806 107.059 30.0081 106.973 30.0533C106.886 30.0984 106.809 30.1602 106.746 30.2351C106.592 30.384 106.503 30.5875 106.498 30.8015C106.503 30.9422 106.551 31.078 106.635 31.1909C106.719 31.3038 106.835 31.3885 106.968 31.4336V31.4538ZM107.818 34.488C108.035 34.4864 108.248 34.4327 108.44 34.3312C108.844 34.1076 109.191 33.7924 109.451 33.4109C109.267 33.2845 109.069 33.181 108.86 33.1024C108.657 33.0303 108.443 32.9944 108.228 32.9962C107.938 32.9892 107.656 33.0922 107.439 33.2844C107.342 33.3628 107.263 33.4613 107.208 33.573C107.153 33.6848 107.123 33.8072 107.12 33.9317C107.116 34.0106 107.131 34.0893 107.164 34.1608C107.198 34.2324 107.249 34.2944 107.312 34.3413C107.46 34.4442 107.638 34.4957 107.818 34.488Z" fill="white"/>
<path d="M110.989 30.0733H109.977V35.3578L109.3 34.9583V30.0733H108.258L107.914 29.4412H110.645L110.989 30.0733Z" fill="white"/>
<path d="M115.322 32.8698H113.365V33.4463C113.369 33.4734 113.366 33.501 113.357 33.5269C113.348 33.5527 113.333 33.5761 113.313 33.5953C113.294 33.6144 113.27 33.6287 113.244 33.6371C113.218 33.6454 113.19 33.6476 113.163 33.6435C113.072 33.6435 112.849 33.4918 112.501 33.1884C112.152 32.885 111.995 32.6827 111.995 32.5563C111.997 32.4956 112.018 32.4371 112.056 32.3894C112.072 32.3635 112.094 32.3421 112.12 32.3271C112.147 32.312 112.177 32.3039 112.207 32.3034H112.713L112.743 31.6612C112.27 31.5533 111.831 31.3271 111.469 31.0038C111.308 30.8225 111.212 30.5924 111.198 30.3503C111.183 30.1082 111.25 29.8682 111.388 29.6688C111.468 29.5595 111.575 29.4721 111.697 29.4147C111.82 29.3572 111.956 29.3316 112.091 29.3401C112.258 29.3337 112.424 29.364 112.577 29.4286C112.731 29.4932 112.869 29.5908 112.981 29.7143C113.281 30.0996 113.427 30.5826 113.391 31.0695V32.3135H115.348L115.322 32.8698ZM112.769 31.2617L112.804 30.5942C112.814 30.423 112.792 30.2514 112.738 30.0885C112.702 30.0118 112.644 29.9479 112.571 29.9054C112.497 29.863 112.413 29.8439 112.329 29.8508C112.26 29.8508 112.193 29.868 112.133 29.9006C112.073 29.9333 112.022 29.9805 111.985 30.0379C111.899 30.1594 111.853 30.3042 111.853 30.4526C111.858 30.5592 111.886 30.6634 111.937 30.7572C111.988 30.851 112.06 30.9319 112.147 30.9937C112.322 31.1441 112.539 31.2376 112.769 31.2617ZM114.751 30.0733H114.245L113.906 29.4412H114.412L114.751 30.0733Z" fill="white"/>
<path d="M116.814 30.0733H115.803V35.3578L115.125 34.9583V30.0733H114.083L113.78 29.4412H116.511L116.814 30.0733Z" fill="white"/>
<path d="M118.887 30.0733H117.876V35.3578L117.198 34.9583V30.0733H116.157L115.803 29.4412H118.528L118.887 30.0733Z" fill="white"/>
<path d="M121.436 29.4412L121.775 30.0733H118.382L118.038 29.4412H121.436ZM122.377 32.8243L120.01 34.488L119.479 34.0228L122.038 32.3135C121.774 32.1246 121.497 31.9556 121.209 31.8078C121.045 31.7187 120.863 31.6686 120.678 31.6612C120.516 31.6598 120.356 31.6733 120.197 31.7017C120.035 31.7371 119.818 31.7826 119.545 31.8534L119.069 31.2314L119.975 31.0594C120.142 31.0341 120.311 31.0222 120.48 31.024C120.629 31.0219 120.776 31.0389 120.92 31.0746C121.065 31.1281 121.198 31.2069 121.315 31.3072C121.436 31.4084 121.603 31.5297 121.82 31.6814L122.402 32.1011L122.377 32.8243Z" fill="white"/>
<path d="M123.894 30.0733H122.882V35.3578L122.205 34.9583V30.0733H121.193L120.85 29.4412H123.575L123.894 30.0733Z" fill="white"/>
<path d="M119.692 35.732C120.094 36.1113 120.549 36.4314 121.042 36.6827C121.443 36.858 121.878 36.9443 122.316 36.9355C122.586 36.9415 122.847 36.8459 123.049 36.6675C123.136 36.6025 123.207 36.5195 123.259 36.4244C123.31 36.3293 123.341 36.2242 123.348 36.1163C123.341 36.0049 123.292 35.9002 123.211 35.823C123.107 35.719 122.972 35.6515 122.827 35.6309C122.72 35.7528 122.603 35.8661 122.478 35.9697C122.406 36.0404 122.314 36.088 122.215 36.1062C122.154 36.1062 122.053 36.0253 121.912 35.8584C121.803 35.7584 121.727 35.628 121.694 35.4842C121.694 35.4336 121.775 35.3679 121.932 35.2921C122.09 35.2179 122.263 35.1799 122.438 35.1808C122.806 35.1718 123.166 35.2977 123.449 35.5348C123.581 35.635 123.687 35.7643 123.761 35.9125C123.835 36.0607 123.873 36.2239 123.874 36.3894C123.873 36.5244 123.846 36.658 123.793 36.7822C123.74 36.9064 123.662 37.0187 123.565 37.1125C123.44 37.2417 123.288 37.343 123.121 37.4101C122.954 37.4772 122.774 37.5085 122.594 37.5019C122.05 37.4967 121.515 37.3633 121.032 37.1125C120.484 36.809 119.974 36.4405 119.515 36.0152L119.692 35.732Z" fill="white"/>
<path d="M123.348 30.0733L123.009 29.4412H126.301L126.645 30.0733H123.348ZM127.277 31.7623H125.76C125.082 31.7623 124.748 32.0657 124.748 32.6776C124.76 32.9964 124.85 33.3074 125.011 33.5828C125.288 34.0579 125.608 34.5065 125.967 34.9229L125.608 35.2162C125.169 34.6919 124.784 34.1243 124.46 33.5221C124.258 33.1433 124.147 32.7225 124.136 32.2933C124.127 32.1221 124.157 31.9509 124.226 31.7936C124.294 31.6363 124.399 31.4974 124.531 31.3881C124.759 31.2081 125.044 31.1149 125.335 31.1252H127.272L127.277 31.7623Z" fill="white"/>
<path d="M129.553 29.4412L129.891 30.0733H126.18L125.841 29.4412H129.553ZM130.422 33.0266C130.151 33.2725 129.85 33.4848 129.527 33.6587C129.244 33.8041 128.93 33.8787 128.612 33.8761C128.191 33.8635 127.788 33.6981 127.479 33.4109C127.287 33.2672 127.131 33.081 127.023 32.867C126.915 32.6529 126.859 32.4167 126.857 32.177C126.853 32.0159 126.882 31.8557 126.942 31.7061C127.002 31.5565 127.092 31.4208 127.206 31.3072C127.374 31.159 127.569 31.0456 127.781 30.9735C127.993 30.9015 128.217 30.8722 128.44 30.8875C128.62 30.8909 128.799 30.9078 128.976 30.9381C129.153 30.9634 129.324 31.0199 129.482 31.1049C129.698 31.2543 129.889 31.4369 130.048 31.646L130.443 32.1517L130.422 33.0266ZM127.469 32.4298C127.452 32.6879 127.537 32.9424 127.707 33.1378C127.794 33.2216 127.897 33.2865 128.01 33.3283C128.123 33.3701 128.244 33.3879 128.364 33.3805C128.697 33.3556 129.018 33.244 129.295 33.0569C129.655 32.8492 129.978 32.5825 130.25 32.268C130.045 32.0698 129.813 31.8997 129.563 31.7623C129.288 31.6079 128.982 31.5196 128.668 31.5044C128.352 31.4858 128.04 31.5809 127.788 31.7724C127.687 31.8499 127.606 31.9496 127.551 32.0637C127.496 32.1777 127.468 32.3031 127.469 32.4298Z" fill="white"/>
<path d="M131.884 30.0733H130.872V35.3578L130.19 34.9583V30.0733H129.178L128.834 29.4412H131.565L131.884 30.0733Z" fill="white"/>
<path d="M133.456 30.0733V32.3135H135.742V32.9507H133.456V33.4564C133.456 33.6486 133.38 33.7446 133.229 33.7446C133.123 33.7446 132.905 33.5676 132.566 33.2389C132.228 32.9103 132.061 32.6625 132.061 32.5714C132.064 32.5111 132.085 32.453 132.121 32.4046C132.137 32.3787 132.16 32.3573 132.186 32.3422C132.213 32.3272 132.243 32.3191 132.273 32.3186H132.779V30.0733H131.262L130.923 29.4412H134.807L135.145 30.0733H133.456Z" fill="white"/>
<path d="M137.178 30.0733H136.167V35.3578L135.489 34.9583V30.0733H134.447L134.109 29.4412H136.834L137.178 30.0733Z" fill="white"/>
<path d="M138.129 37.7244C137.997 37.5727 137.76 37.3401 137.421 37.0215C137.082 36.7029 136.86 36.5158 136.738 36.4046C136.623 36.3154 136.497 36.2406 136.364 36.1821C136.259 36.1286 136.143 36.0992 136.025 36.0961H135.712C135.623 36.1016 135.535 36.1134 135.449 36.1315C135.335 35.9966 135.231 35.8548 135.135 35.7067C135.072 35.6231 135.024 35.5289 134.994 35.4286C134.994 35.3679 135.135 35.3375 135.413 35.3375C135.636 35.3316 135.859 35.3641 136.071 35.4336C136.281 35.5258 136.476 35.6503 136.647 35.8028C136.917 36.0327 137.174 36.2775 137.416 36.536C137.714 36.8445 138.013 37.1681 138.321 37.4968L138.129 37.7244Z" fill="white"/>
</g>
<defs>
<clipPath id="clip0_1307_12650">
<rect width="138.321" height="40" fill="white"/>
</clipPath>
</defs>
</svg>
